# This file is brought to you by Roblox Corporation
# Generated by Roblox Studio

mtllib CineLeg.mtl

g Identify1

v 0.734079 1.04612 0.784593 
v 0.843768 1.04612 0.682596 
v 0.73888 1.14812 0.687061 
v 0.73888 1.14812 0.687061 
v 0.843768 1.04612 0.682596 
v 0.843768 1.04612 -0.682596 
v 0.73888 1.14812 0.687061 
v 0.843768 1.04612 -0.682596 
v 0.73888 1.14812 -0.687061 
v 0.537099 -1.07349 -0.574058 
v 0.617355 -1.07349 -0.499431 
v 0.537099 -1.14812 -0.499431 
v 0.537099 -1.14812 0.499431 
v 0.617355 -1.07349 0.499431 
v 0.537099 -1.07349 0.574058 
v 0.537099 -1.14812 -0.499431 
v 0.617355 -1.07349 -0.499431 
v 0.617355 -1.07349 0.499431 
v 0.537099 -1.14812 -0.499431 
v 0.617355 -1.07349 0.499431 
v 0.537099 -1.14812 0.499431 
v 0.537099 -1.07349 0.574058 
v 0.617355 -1.07349 0.499431 
v 0.843768 1.04612 0.682596 
v 0.537099 -1.07349 0.574058 
v 0.843768 1.04612 0.682596 
v 0.734079 1.04612 0.784593 
v 0.843768 1.04612 0.682596 
v 0.617355 -1.07349 0.499431 
v 0.617355 -1.07349 -0.499431 
v 0.843768 1.04612 0.682596 
v 0.617355 -1.07349 -0.499431 
v 0.843768 1.04612 -0.682596 
v -0.73888 1.14812 0.687061 
v 0.73888 1.14812 0.687061 
v 0.73888 1.14812 -0.687061 
v -0.73888 1.14812 -0.687061 
v -0.734079 1.04612 0.784593 
v 0.734079 1.04612 0.784593 
v 0.73888 1.14812 0.687061 
v -0.734079 1.04612 0.784593 
v 0.73888 1.14812 0.687061 
v -0.73888 1.14812 0.687061 
v -0.617355 -1.07349 0.499431 
v -0.734079 1.04612 0.784593 
v -0.843768 1.04612 0.682596 
v -0.537099 -1.07349 0.574058 
v 0.537099 -1.07349 0.574058 
v 0.734079 1.04612 0.784593 
v -0.537099 -1.07349 0.574058 
v 0.734079 1.04612 0.784593 
v -0.734079 1.04612 0.784593 
v -0.843768 1.04612 0.682596 
v -0.734079 1.04612 0.784593 
v -0.73888 1.14812 0.687061 
v -0.843768 1.04612 0.682596 
v -0.73888 1.14812 0.687061 
v -0.73888 1.14812 -0.687061 
v -0.843768 1.04612 0.682596 
v -0.73888 1.14812 -0.687061 
v -0.843768 1.04612 -0.682596 
v -0.617355 -1.07349 -0.499431 
v -0.537099 -1.07349 -0.574058 
v -0.537099 -1.14812 -0.499431 
v -0.617355 -1.07349 0.499431 
v -0.537099 -1.14812 0.499431 
v -0.537099 -1.07349 0.574058 
v -0.617355 -1.07349 -0.499431 
v -0.537099 -1.14812 -0.499431 
v -0.537099 -1.14812 0.499431 
v -0.617355 -1.07349 -0.499431 
v -0.537099 -1.14812 0.499431 
v -0.617355 -1.07349 0.499431 
v -0.843768 1.04612 -0.682596 
v -0.537099 -1.07349 -0.574058 
v -0.617355 -1.07349 -0.499431 
v -0.617355 -1.07349 0.499431 
v -0.537099 -1.07349 0.574058 
v -0.734079 1.04612 0.784593 
v -0.843768 1.04612 -0.682596 
v -0.617355 -1.07349 -0.499431 
v -0.617355 -1.07349 0.499431 
v -0.843768 1.04612 -0.682596 
v -0.617355 -1.07349 0.499431 
v -0.843768 1.04612 0.682596 
v -0.537099 -1.07349 -0.574058 
v 0.537099 -1.07349 -0.574058 
v 0.537099 -1.14812 -0.499431 
v -0.537099 -1.07349 -0.574058 
v 0.537099 -1.14812 -0.499431 
v -0.537099 -1.14812 -0.499431 
v -0.537099 -1.14812 0.499431 
v 0.537099 -1.14812 0.499431 
v 0.537099 -1.07349 0.574058 
v -0.537099 -1.14812 0.499431 
v 0.537099 -1.07349 0.574058 
v -0.537099 -1.07349 0.574058 
v -0.537099 -1.14812 -0.499431 
v 0.537099 -1.14812 -0.499431 
v 0.537099 -1.14812 0.499431 
v -0.537099 -1.14812 0.499431 
v -0.843768 1.04612 -0.682596 
v -0.73888 1.14812 -0.687061 
v -0.734079 1.04612 -0.784593 
v 0.73888 1.14812 -0.687061 
v 0.843768 1.04612 -0.682596 
v 0.734079 1.04612 -0.784593 
v -0.73888 1.14812 -0.687061 
v 0.73888 1.14812 -0.687061 
v 0.734079 1.04612 -0.784593 
v -0.73888 1.14812 -0.687061 
v 0.734079 1.04612 -0.784593 
v -0.734079 1.04612 -0.784593 
v -0.843768 1.04612 -0.682596 
v -0.734079 1.04612 -0.784593 
v -0.537099 -1.07349 -0.574058 
v 0.734079 1.04612 -0.784593 
v 0.843768 1.04612 -0.682596 
v 0.617355 -1.07349 -0.499431 
v 0.734079 1.04612 -0.784593 
v 0.617355 -1.07349 -0.499431 
v 0.537099 -1.07349 -0.574058 
v -0.734079 1.04612 -0.784593 
v 0.734079 1.04612 -0.784593 
v 0.537099 -1.07349 -0.574058 
v -0.734079 1.04612 -0.784593 
v 0.537099 -1.07349 -0.574058 
v -0.537099 -1.07349 -0.574058 

vn 0 -0.023622 1 
vn 1 -0.0314961 -0.00787402 
vn 0.0314961 1 0.0314961 
vn 0.023622 1 0.00787402 
vn 1 -0.023622 -0.00787402 
vn 1 -0.023622 0 
vn 0.023622 1 0 
vn 1 -0.023622 0.00787402 
vn 0.023622 1 -0.00787402 
vn 0 0 -1 
vn 1 0 0 
vn 0 -1 0 
vn 0 -1 0 
vn 1 0 0 
vn 0 0 1 
vn 0 -1 0 
vn 1 0 0 
vn 1 0 0 
vn 0 -1 0 
vn 1 0 0 
vn 0 -1 0 
vn 0 -0.0866142 1 
vn 0.992126 -0.102362 -0.00787402 
vn 0.992126 -0.102362 -0.00787402 
vn -0.00787402 -0.0944882 0.992126 
vn 0.992126 -0.102362 -0.00787402 
vn -0.00787402 -0.0944882 0.992126 
vn 0.992126 -0.102362 0 
vn 0.992126 -0.102362 0 
vn 0.992126 -0.102362 0 
vn 0.992126 -0.102362 0 
vn 0.992126 -0.102362 0 
vn 0.992126 -0.102362 0 
vn 0 1 0 
vn 0 1 0 
vn 0 1 0 
vn 0 1 0 
vn 0 -0.023622 1 
vn -0.00787402 -0.023622 1 
vn 0.00787402 1 0.023622 
vn 0.00787402 -0.023622 1 
vn 0 1 0.023622 
vn -0.00787402 1 0.023622 
vn -0.992126 -0.102362 -0.00787402 
vn 0.00787402 -0.0944882 0.992126 
vn -0.992126 -0.102362 -0.00787402 
vn 0 -0.102362 0.992126 
vn 0 -0.102362 0.992126 
vn 0 -0.102362 0.992126 
vn 0 -0.102362 0.992126 
vn 0 -0.102362 0.992126 
vn 0 -0.102362 0.992126 
vn -1 -0.0314961 -0.00787402 
vn 0 -0.023622 1 
vn -0.0314961 1 0.0314961 
vn -1 -0.023622 -0.00787402 
vn -0.023622 1 0.00787402 
vn -0.023622 1 0 
vn -1 -0.023622 0 
vn -0.023622 1 -0.00787402 
vn -1 -0.023622 0.00787402 
vn -1 0 0 
vn 0 0 -1 
vn 0 -1 0 
vn -1 0 0 
vn 0 -1 0 
vn 0 0 1 
vn -1 0 0 
vn 0 -1 0 
vn 0 -1 0 
vn -1 0 0 
vn 0 -1 0 
vn -1 0 0 
vn -0.992126 -0.102362 0.00787402 
vn 0 -0.0866142 -1 
vn -0.992126 -0.102362 0.00787402 
vn -0.992126 -0.0944882 -0.00787402 
vn 0.00787402 -0.0944882 0.992126 
vn 0.00787402 -0.102362 0.992126 
vn -0.992126 -0.102362 0 
vn -0.992126 -0.102362 0 
vn -0.992126 -0.102362 0 
vn -0.992126 -0.102362 0 
vn -0.992126 -0.102362 0 
vn -0.992126 -0.102362 0 
vn 0 0 -1 
vn 0 0 -1 
vn 0 -1 0 
vn 0 0 -1 
vn 0 -1 0 
vn 0 -1 0 
vn 0 -1 0 
vn 0 -1 0 
vn 0 0 1 
vn 0 -1 0 
vn 0 0 1 
vn 0 0 1 
vn 0 -1 0 
vn 0 -1 0 
vn 0 -1 0 
vn 0 -1 0 
vn -1 -0.0314961 0.00787402 
vn -0.0314961 1 -0.0314961 
vn 0 -0.023622 -1 
vn 0.0314961 1 -0.0314961 
vn 1 -0.0314961 0.00787402 
vn 0 -0.023622 -1 
vn 0 1 -0.023622 
vn 0.00787402 1 -0.023622 
vn -0.00787402 -0.023622 -1 
vn -0.00787402 1 -0.023622 
vn 0 -0.023622 -1 
vn 0.00787402 -0.023622 -1 
vn -0.992126 -0.102362 0.00787402 
vn 0.00787402 -0.0944882 -0.992126 
vn 0.00787402 -0.0944882 -0.992126 
vn -0.00787402 -0.0944882 -0.992126 
vn 0.992126 -0.102362 0.00787402 
vn 0.992126 -0.102362 0.00787402 
vn -0.00787402 -0.102362 -0.992126 
vn 0.992126 -0.0944882 0.00787402 
vn -0.00787402 -0.0944882 -0.992126 
vn 0 -0.102362 -0.992126 
vn 0 -0.102362 -0.992126 
vn 0 -0.102362 -0.992126 
vn 0 -0.102362 -0.992126 
vn 0 -0.102362 -0.992126 
vn 0 -0.102362 -0.992126 

vt 27.2154 -17.9539 
vt 27.3174 -17.9539 
vt 27.3129 -17.8519 
vt 27.3129 -17.8519 
vt 27.3174 -17.9539 
vt 28.6826 -17.9539 
vt 27.3129 -17.8519 
vt 28.6826 -17.9539 
vt 28.6871 -17.8519 
vt 28.5741 -20.0735 
vt 28.4994 -20.0735 
vt 28.4994 -20.1481 
vt 27.5006 -20.1481 
vt 27.5006 -20.0735 
vt 27.4259 -20.0735 
vt 28.4994 -20.1481 
vt 28.4994 -20.0735 
vt 27.5006 -20.0735 
vt 28.4994 -20.1481 
vt 27.5006 -20.0735 
vt 27.5006 -20.1481 
vt 27.4259 -20.0735 
vt 27.5006 -20.0735 
vt 27.3174 -17.9539 
vt 27.4259 -20.0735 
vt 27.3174 -17.9539 
vt 27.2154 -17.9539 
vt 27.3174 -17.9539 
vt 27.5006 -20.0735 
vt 28.4994 -20.0735 
vt 27.3174 -17.9539 
vt 28.4994 -20.0735 
vt 28.6826 -17.9539 
vt 28.7389 -18.3129 
vt 27.2611 -18.3129 
vt 27.2611 -19.6871 
vt 28.7389 -19.6871 
vt 27.2659 -17.9539 
vt 28.7341 -17.9539 
vt 28.7389 -17.8519 
vt 27.2659 -17.9539 
vt 28.7389 -17.8519 
vt 27.2611 -17.8519 
vt 27.3826 -20.0735 
vt 27.2659 -17.9539 
vt 27.1562 -17.9539 
vt 27.4629 -20.0735 
vt 28.5371 -20.0735 
vt 28.7341 -17.9539 
vt 27.4629 -20.0735 
vt 28.7341 -17.9539 
vt 27.2659 -17.9539 
vt 28.6826 -17.9539 
vt 28.7846 -17.9539 
vt 28.6871 -17.8519 
vt 28.6826 -17.9539 
vt 28.6871 -17.8519 
vt 27.3129 -17.8519 
vt 28.6826 -17.9539 
vt 27.3129 -17.8519 
vt 27.3174 -17.9539 
vt 27.5006 -20.0735 
vt 27.4259 -20.0735 
vt 27.5006 -20.1481 
vt 28.4994 -20.0735 
vt 28.4994 -20.1481 
vt 28.5741 -20.0735 
vt 27.5006 -20.0735 
vt 27.5006 -20.1481 
vt 28.4994 -20.1481 
vt 27.5006 -20.0735 
vt 28.4994 -20.1481 
vt 28.4994 -20.0735 
vt 27.3174 -17.9539 
vt 27.4259 -20.0735 
vt 27.5006 -20.0735 
vt 28.4994 -20.0735 
vt 28.5741 -20.0735 
vt 28.7846 -17.9539 
vt 27.3174 -17.9539 
vt 27.5006 -20.0735 
vt 28.4994 -20.0735 
vt 27.3174 -17.9539 
vt 28.4994 -20.0735 
vt 28.6826 -17.9539 
vt 27.4629 -19.5741 
vt 28.5371 -19.5741 
vt 28.5371 -19.4994 
vt 27.4629 -19.5741 
vt 28.5371 -19.4994 
vt 27.4629 -19.4994 
vt 27.4629 -18.5006 
vt 28.5371 -18.5006 
vt 28.5371 -18.4259 
vt 27.4629 -18.5006 
vt 28.5371 -18.4259 
vt 27.4629 -18.4259 
vt 27.4629 -19.4994 
vt 28.5371 -19.4994 
vt 28.5371 -18.5006 
vt 27.4629 -18.5006 
vt 28.8438 -17.9539 
vt 28.7389 -17.8519 
vt 28.7341 -17.9539 
vt 27.2611 -17.8519 
vt 27.1562 -17.9539 
vt 27.2659 -17.9539 
vt 28.7389 -17.8519 
vt 27.2611 -17.8519 
vt 27.2659 -17.9539 
vt 28.7389 -17.8519 
vt 27.2659 -17.9539 
vt 28.7341 -17.9539 
vt 28.8438 -17.9539 
vt 28.7341 -17.9539 
vt 28.5371 -20.0735 
vt 27.2659 -17.9539 
vt 27.1562 -17.9539 
vt 27.3826 -20.0735 
vt 27.2659 -17.9539 
vt 27.3826 -20.0735 
vt 27.4629 -20.0735 
vt 28.7341 -17.9539 
vt 27.2659 -17.9539 
vt 27.4629 -20.0735 
vt 28.7341 -17.9539 
vt 27.4629 -20.0735 
vt 28.5371 -20.0735 

usemtl Identify1Mtl

f 1/1/1 2/2/2 3/3/3 
f 4/4/4 5/5/5 6/6/6 
f 7/7/7 8/8/8 9/9/9 
f 10/10/10 11/11/11 12/12/12 
f 13/13/13 14/14/14 15/15/15 
f 16/16/16 17/17/17 18/18/18 
f 19/19/19 20/20/20 21/21/21 
f 22/22/22 23/23/23 24/24/24 
f 25/25/25 26/26/26 27/27/27 
f 28/28/28 29/29/29 30/30/30 
f 31/31/31 32/32/32 33/33/33 
f 34/34/34 35/35/35 36/36/36 
f 34/34/34 36/36/36 37/37/37 
f 38/38/38 39/39/39 40/40/40 
f 41/41/41 42/42/42 43/43/43 
f 44/44/44 45/45/45 46/46/46 
f 47/47/47 48/48/48 49/49/49 
f 50/50/50 51/51/51 52/52/52 
f 53/53/53 54/54/54 55/55/55 
f 56/56/56 57/57/57 58/58/58 
f 59/59/59 60/60/60 61/61/61 
f 62/62/62 63/63/63 64/64/64 
f 65/65/65 66/66/66 67/67/67 
f 68/68/68 69/69/69 70/70/70 
f 71/71/71 72/72/72 73/73/73 
f 74/74/74 75/75/75 76/76/76 
f 77/77/77 78/78/78 79/79/79 
f 80/80/80 81/81/81 82/82/82 
f 83/83/83 84/84/84 85/85/85 
f 86/86/86 87/87/87 88/88/88 
f 89/89/89 90/90/90 91/91/91 
f 92/92/92 93/93/93 94/94/94 
f 95/95/95 96/96/96 97/97/97 
f 98/98/98 99/99/99 100/100/100 
f 98/98/98 100/100/100 101/101/101 
f 102/102/102 103/103/103 104/104/104 
f 105/105/105 106/106/106 107/107/107 
f 108/108/108 109/109/109 110/110/110 
f 111/111/111 112/112/112 113/113/113 
f 114/114/114 115/115/115 116/116/116 
f 117/117/117 118/118/118 119/119/119 
f 120/120/120 121/121/121 122/122/122 
f 123/123/123 124/124/124 125/125/125 
f 126/126/126 127/127/127 128/128/128 

