# This file is brought to you by Roblox Corporation
# Generated by Roblox Studio

mtllib CineTorso.mtl

g Model1

v 0.437497 -0.935643 1.00005 
v -0.443404 -0.935643 1.00005 
v -0.445617 -1 0.942836 
v 0.446616 -1 0.942836 
v 0.493855 -0.935563 0.941405 
v 0.338345 -0.245873 0.644981 
v 0.280002 -0.245923 0.701902 
v -0.283055 -0.245923 0.701902 
v -0.34131 -0.245873 0.644932 
v -0.499556 -0.935563 0.941312 
v 0.493855 -0.935563 -2.15871e-08 
v 0.338345 -0.245873 -1.47895e-08 
v 0.446616 -1 -1.95222e-08 
v -0.445617 -1 1.94785e-08 
v 0.446616 -1 -1.95222e-08 
v 0.446616 -1 0.942836 
v -0.445617 -1 0.942836 
v -0.499556 -0.935563 2.18363e-08 
v -0.445617 -1 1.94785e-08 
v -0.34131 -0.245873 1.49191e-08 
v 0.437497 -0.935644 -1.00005 
v 0.446616 -1 -0.942836 
v -0.445617 -1 -0.942836 
v -0.443404 -0.935644 -1.00005 
v 0.446616 -1 -0.942836 
v 0.493855 -0.935563 -0.941405 
v 0.446616 -1 -0.942836 
v -0.445617 -1 -0.942836 
v -0.499556 -0.935563 -0.941312 
v 0.437497 -0.935644 -1.00005 
v 0.439501 0.936007 1 
v 0.440399 1.00037 0.944561 
v -0.439399 1.00037 0.944561 
v -0.439499 0.936007 1 
v 0.499968 0.935987 0.944916 
v 0.499968 0.935987 -2.18543e-08 
v 0.440399 1.00037 -1.92505e-08 
v 0.440399 1.00037 0.944561 
v 0.440399 1.00037 -1.92505e-08 
v -0.439399 1.00037 1.92067e-08 
v -0.439399 1.00037 0.944561 
v -0.439399 1.00037 1.92067e-08 
v -0.5 0.935987 2.18557e-08 
v -0.5 0.935987 0.944916 
v -0.439499 0.936007 -1 
v -0.439399 1.00037 -0.944561 
v 0.440399 1.00037 -0.944561 
v 0.439501 0.936007 -1 
v -0.283055 -0.245923 -0.701902 
v 0.280002 -0.245923 -0.701902 
v -0.34131 -0.245873 -0.644932 
v 0.499968 0.935987 -0.944916 
v 0.439501 0.936007 -1 
v 0.440399 1.00037 -0.944561 
v -0.5 0.935987 -0.944916 
v -0.500004 0.491927 -0.944919 
v -0.500004 0.491927 2.18559e-08 
v 0.499968 0.491927 -2.18543e-08 
v 0.499968 0.491927 -0.944919 
v 0.440399 1.00037 -0.944561 
v -0.439399 1.00037 -0.944561 
v 0.439501 0.491927 1 
v 0.499968 0.491927 0.944919 
v -0.4395 0.491927 1 
v -0.4395 0.491927 1 
v -0.500004 0.491927 0.944919 
v 0.439501 0.491927 -1 
v 0.439501 0.491927 -1 
v -0.4395 0.491927 -1 
v 0.338345 -0.245873 -0.644981 
v 0.280002 -0.245923 -0.701902 

vn 0.401575 -0.0944882 0.913386 
vn -0.401575 -0.110236 0.913386 
vn -0.409449 -0.826772 0.393701 
vn 0.433071 -0.80315 0.401575 
vn 0.92126 -0.11811 0.377953 
vn 0.929134 0.00787402 0.377953 
vn 0.377953 0.00787402 0.929134 
vn -0.377953 0.015748 0.929134 
vn -0.929134 0.00787402 0.377953 
vn -0.913386 -0.149606 0.377953 
vn 0.976378 -0.204724 0 
vn 1 0 0 
vn 0.448819 -0.889764 0 
vn -0.425197 -0.905512 0 
vn 0.448819 -0.889764 0 
vn 0.433071 -0.80315 0.401575 
vn -0.409449 -0.826772 0.393701 
vn -0.968504 -0.23622 0 
vn -0.425197 -0.905512 0 
vn -1 0.00787402 0 
vn 0.401575 -0.0944882 -0.913386 
vn 0.433071 -0.80315 -0.401575 
vn -0.409449 -0.826772 -0.393701 
vn -0.401575 -0.110236 -0.913386 
vn 0.433071 -0.80315 -0.401575 
vn 0.92126 -0.11811 -0.377953 
vn 0.433071 -0.80315 -0.401575 
vn -0.409449 -0.826772 -0.393701 
vn -0.913386 -0.149606 -0.377953 
vn 0.401575 -0.0944882 -0.913386 
vn 0.346457 0.330709 0.874016 
vn 0.377953 0.834646 0.401575 
vn -0.377953 0.834646 0.401575 
vn -0.346457 0.330709 0.874016 
vn 0.850394 0.346457 0.393701 
vn 0.929134 0.362205 0 
vn 0.401575 0.913386 0 
vn 0.377953 0.834646 0.401575 
vn 0.401575 0.913386 0 
vn -0.393701 0.92126 0 
vn -0.377953 0.834646 0.401575 
vn -0.393701 0.92126 0 
vn -0.929134 0.370079 0 
vn -0.850394 0.354331 0.393701 
vn -0.346457 0.330709 -0.874016 
vn -0.377953 0.834646 -0.401575 
vn 0.377953 0.834646 -0.401575 
vn 0.346457 0.330709 -0.874016 
vn -0.377953 0.015748 -0.929134 
vn 0.377953 0.00787402 -0.929134 
vn -0.929134 0.00787402 -0.377953 
vn 0.850394 0.346457 -0.393701 
vn 0.346457 0.330709 -0.874016 
vn 0.377953 0.834646 -0.401575 
vn -0.850394 0.354331 -0.393701 
vn -0.905512 -0.173228 -0.385827 
vn -0.992126 -0.102362 0 
vn 0.992126 -0.110236 0 
vn 0.905512 -0.173228 -0.385827 
vn 0.377953 0.834646 -0.401575 
vn -0.377953 0.834646 -0.401575 
vn 0.354331 -0.212598 0.913386 
vn 0.905512 -0.173228 0.385827 
vn -0.354331 -0.212598 0.913386 
vn -0.354331 -0.212598 0.913386 
vn -0.905512 -0.173228 0.385827 
vn 0.354331 -0.212598 -0.913386 
vn 0.354331 -0.212598 -0.913386 
vn -0.354331 -0.212598 -0.913386 
vn 0.929134 0.00787402 -0.377953 
vn 0.377953 0.00787402 -0.929134 

vt 0.027936 0.500536 
vt 0.027936 0.624816 
vt 0.0232875 0.624816 
vt 0.0232875 0.500536 
vt 0.027936 0.497313 
vt 0.0584295 0.497313 
vt 0.0584295 0.500536 
vt 0.0584295 0.624816 
vt 0.0584295 0.627655 
vt 0.027936 0.627655 
vt 0.027936 0.373755 
vt 0.0584295 0.375154 
vt 0.0232875 0.373634 
vt 0.29305 0.358737 
vt 0.29305 0.235202 
vt 0.33991 0.235202 
vt 0.33991 0.358737 
vt 0.027936 0.749481 
vt 0.0232875 0.749532 
vt 0.0584295 0.748538 
vt 0.027936 0.999574 
vt 0.0232875 0.999574 
vt 0.0232875 0.875088 
vt 0.027936 0.875088 
vt 0.0232875 0.249805 
vt 0.027936 0.252181 
vt 0.246191 0.235202 
vt 0.246191 0.358737 
vt 0.027936 0.871924 
vt 0.027936 0.249805 
vt 0.112758 0.500536 
vt 0.117116 0.500536 
vt 0.117116 0.624816 
vt 0.112758 0.624816 
vt 0.112758 0.497313 
vt 0.112758 0.375117 
vt 0.117116 0.37495 
vt 0.24002 0.358772 
vt 0.19346 0.358773 
vt 0.19346 0.235273 
vt 0.24002 0.235273 
vt 0.117116 0.748933 
vt 0.112758 0.748779 
vt 0.112758 0.627655 
vt 0.112758 0.875088 
vt 0.117116 0.875088 
vt 0.117116 0.999574 
vt 0.112758 0.999574 
vt 0.0584295 0.875088 
vt 0.0584295 0.999574 
vt 0.0584295 0.871924 
vt 0.112758 0.252181 
vt 0.112758 0.249805 
vt 0.117116 0.249805 
vt 0.112758 0.871924 
vt 0.0927188 0.871924 
vt 0.0927188 0.748354 
vt 0.0927188 0.375656 
vt 0.0927188 0.252181 
vt 0.146899 0.358773 
vt 0.146899 0.235273 
vt 0.0927188 0.500536 
vt 0.0927188 0.497313 
vt 0.0927188 0.624816 
vt 0.0927188 0.624581 
vt 0.0927188 0.627655 
vt 0.0927188 0.249805 
vt 0.0927188 0.999574 
vt 0.0927188 0.875088 
vt 0.0584295 0.252181 
vt 0.0584295 0.249805 

usemtl Model1Mtl

f 1/1/1 2/2/2 3/3/3 
f 3/3/3 4/4/4 1/1/1 
f 5/5/5 6/6/6 7/7/7 
f 7/7/7 1/1/1 5/5/5 
f 8/8/8 2/2/2 1/1/1 
f 1/1/1 7/7/7 8/8/8 
f 8/8/8 9/9/9 10/10/10 
f 10/10/10 2/2/2 8/8/8 
f 5/5/5 1/1/1 4/4/4 
f 10/10/10 3/3/3 2/2/2 
f 11/11/11 12/12/12 6/6/6 
f 6/6/6 5/5/5 11/11/11 
f 13/13/13 11/11/11 5/5/5 
f 5/5/5 4/4/4 13/13/13 
f 14/14/14 15/15/15 16/16/16 
f 16/16/16 17/17/17 14/14/14 
f 3/3/3 10/10/10 18/18/18 
f 18/18/18 19/19/19 3/3/3 
f 9/9/9 20/20/20 18/18/18 
f 18/18/18 10/10/10 9/9/9 
f 21/21/21 22/22/22 23/23/23 
f 23/23/23 24/24/24 21/21/21 
f 25/25/25 26/26/26 11/11/11 
f 11/11/11 13/13/13 25/25/25 
f 27/27/27 15/15/15 14/14/14 
f 14/14/14 28/28/28 27/27/27 
f 23/23/23 19/19/19 18/18/18 
f 18/18/18 29/29/29 23/23/23 
f 24/24/24 23/23/23 29/29/29 
f 25/25/25 30/30/30 26/26/26 
f 31/31/31 32/32/32 33/33/33 
f 33/33/33 34/34/34 31/31/31 
f 32/32/32 35/35/35 36/36/36 
f 36/36/36 37/37/37 32/32/32 
f 38/38/38 39/39/39 40/40/40 
f 40/40/40 41/41/41 38/38/38 
f 42/42/42 43/43/43 44/44/44 
f 44/44/44 33/33/33 42/42/42 
f 34/34/34 33/33/33 44/44/44 
f 32/32/32 31/31/31 35/35/35 
f 45/45/45 46/46/46 47/47/47 
f 47/47/47 48/48/48 45/45/45 
f 49/49/49 50/50/50 21/21/21 
f 21/21/21 24/24/24 49/49/49 
f 29/29/29 51/51/51 49/49/49 
f 49/49/49 24/24/24 29/29/29 
f 52/52/52 53/53/53 54/54/54 
f 55/55/55 46/46/46 45/45/45 
f 43/43/43 55/55/55 56/56/56 
f 56/56/56 57/57/57 43/43/43 
f 52/52/52 36/36/36 58/58/58 
f 58/58/58 59/59/59 52/52/52 
f 54/54/54 37/37/37 36/36/36 
f 36/36/36 52/52/52 54/54/54 
f 40/40/40 39/39/39 60/60/60 
f 60/60/60 61/61/61 40/40/40 
f 46/46/46 55/55/55 43/43/43 
f 43/43/43 42/42/42 46/46/46 
f 62/62/62 63/63/63 35/35/35 
f 35/35/35 31/31/31 62/62/62 
f 34/34/34 64/64/64 62/62/62 
f 62/62/62 31/31/31 34/34/34 
f 65/65/65 34/34/34 44/44/44 
f 44/44/44 66/66/66 65/65/65 
f 35/35/35 63/63/63 58/58/58 
f 58/58/58 36/36/36 35/35/35 
f 43/43/43 57/57/57 66/66/66 
f 66/66/66 44/44/44 43/43/43 
f 67/67/67 53/53/53 52/52/52 
f 52/52/52 59/59/59 67/67/67 
f 48/48/48 68/68/68 69/69/69 
f 69/69/69 45/45/45 48/48/48 
f 69/69/69 56/56/56 55/55/55 
f 55/55/55 45/45/45 69/69/69 
f 51/51/51 29/29/29 18/18/18 
f 18/18/18 20/20/20 51/51/51 
f 11/11/11 26/26/26 70/70/70 
f 70/70/70 12/12/12 11/11/11 
f 71/71/71 70/70/70 26/26/26 
f 26/26/26 30/30/30 71/71/71 
f 69/69/69 68/68/68 50/50/50 
f 50/50/50 49/49/49 69/69/69 
f 71/71/71 67/67/67 59/59/59 
f 59/59/59 70/70/70 71/71/71 
f 70/70/70 59/59/59 58/58/58 
f 58/58/58 12/12/12 70/70/70 
f 58/58/58 63/63/63 6/6/6 
f 6/6/6 12/12/12 58/58/58 
f 63/63/63 62/62/62 7/7/7 
f 7/7/7 6/6/6 63/63/63 
f 64/64/64 8/8/8 7/7/7 
f 7/7/7 62/62/62 64/64/64 
f 8/8/8 65/65/65 66/66/66 
f 66/66/66 9/9/9 8/8/8 
f 57/57/57 20/20/20 9/9/9 
f 9/9/9 66/66/66 57/57/57 
f 57/57/57 56/56/56 51/51/51 
f 51/51/51 20/20/20 57/57/57 
f 56/56/56 69/69/69 49/49/49 
f 49/49/49 51/51/51 56/56/56 

